<svg xmlns="http://www.w3.org/2000/svg" viewBox="0 0 640 420" role="img" aria-labelledby="title desc">
  <title id="title">Giày Nike</title><desc id="desc">Ảnh minh họa giày sneaker Nike màu trắng và cam</desc>
  <defs><linearGradient id="bg" x1="0" y1="0" x2="1" y2="1"><stop stop-color="#fff7f1"/><stop offset="1" stop-color="#ffe0ca"/></linearGradient><linearGradient id="shoe" x1="0" y1="0" x2="1" y2="1"><stop stop-color="#ffffff"/><stop offset="1" stop-color="#dfe6ef"/></linearGradient></defs>
  <rect width="640" height="420" rx="28" fill="url(#bg)"/><ellipse cx="323" cy="337" rx="214" ry="25" fill="#d7b8a3" opacity=".45"/>
  <path d="M141 272c48-11 99-47 135-104l45-67c8-12 26-13 35-2l55 66c18 21 45 38 78 49l70 24c26 9 44 30 49 55l4 19H125c-4-17 0-33 16-40Z" fill="url(#shoe)" stroke="#152238" stroke-width="7"/>
  <path d="M278 114c30 20 57 40 83 60 22 16 43 26 66 32" fill="none" stroke="#ff6422" stroke-width="14" stroke-linecap="round"/>
  <path d="M140 312h472c0 17-14 30-31 30H153c-12 0-20-13-13-30Z" fill="#152238"/><path d="M192 264c58 8 129 8 213 0" fill="none" stroke="#ff6422" stroke-width="7" stroke-linecap="round"/>
</svg>
